<svg xmlns="http://www.w3.org/2000/svg" viewBox="0 0 1200 675">
  <defs>
    <linearGradient id="bg2" x1="0" y1="0" x2="1" y2="1">
      <stop offset="0%" stop-color="#0F2440"/>
      <stop offset="100%" stop-color="#1A365D"/>
    </linearGradient>
  </defs>
  <rect width="1200" height="675" fill="url(#bg2)"/>
  <circle cx="1000" cy="200" r="250" fill="#2D7D46" opacity="0.05"/>
  <circle cx="200" cy="500" r="200" fill="#D4AF37" opacity="0.04"/>
  <!-- Grid -->
  <g opacity="0.03" stroke="#fff" stroke-width="1">
    <line x1="0" y1="135" x2="1200" y2="135"/><line x1="0" y1="270" x2="1200" y2="270"/>
    <line x1="0" y1="405" x2="1200" y2="405"/><line x1="0" y1="540" x2="1200" y2="540"/>
    <line x1="240" y1="0" x2="240" y2="675"/><line x1="480" y1="0" x2="480" y2="675"/>
    <line x1="720" y1="0" x2="720" y2="675"/><line x1="960" y1="0" x2="960" y2="675"/>
  </g>
  <!-- AI Brain icon -->
  <g transform="translate(850, 150)">
    <circle cx="60" cy="60" r="55" fill="none" stroke="#2D7D46" stroke-width="3" opacity="0.5"/>
    <circle cx="40" cy="45" r="8" fill="#D4AF37" opacity="0.4"/>
    <circle cx="80" cy="45" r="8" fill="#D4AF37" opacity="0.4"/>
    <circle cx="60" cy="75" r="8" fill="#D4AF37" opacity="0.4"/>
    <line x1="40" y1="45" x2="80" y2="45" stroke="#D4AF37" stroke-width="1.5" opacity="0.3"/>
    <line x1="40" y1="45" x2="60" y2="75" stroke="#D4AF37" stroke-width="1.5" opacity="0.3"/>
    <line x1="80" y1="45" x2="60" y2="75" stroke="#D4AF37" stroke-width="1.5" opacity="0.3"/>
    <circle cx="30" cy="75" r="6" fill="#2D7D46" opacity="0.3"/>
    <circle cx="90" cy="75" r="6" fill="#2D7D46" opacity="0.3"/>
    <line x1="30" y1="75" x2="60" y2="75" stroke="#2D7D46" stroke-width="1" opacity="0.3"/>
    <line x1="90" y1="75" x2="60" y2="75" stroke="#2D7D46" stroke-width="1" opacity="0.3"/>
  </g>
  <!-- Clipboard icon -->
  <g transform="translate(80, 200)">
    <rect x="10" y="20" width="100" height="140" rx="8" fill="none" stroke="#2D7D46" stroke-width="3" opacity="0.5"/>
    <rect x="35" y="10" width="50" height="20" rx="5" fill="#2D7D46" opacity="0.3"/>
    <path d="M35 70 L50 85 L85 50" fill="none" stroke="#D4AF37" stroke-width="3" stroke-linecap="round" opacity="0.5"/>
    <line x1="30" y1="110" x2="90" y2="110" stroke="#fff" stroke-width="2" opacity="0.2"/>
    <line x1="30" y1="130" x2="75" y2="130" stroke="#fff" stroke-width="2" opacity="0.2"/>
  </g>
  <!-- Category badge -->
  <rect x="80" y="100" width="200" height="36" rx="18" fill="#2D7D46" opacity="0.15"/>
  <text x="100" y="124" font-family="Arial, sans-serif" font-size="15" font-weight="600" fill="#2D7D46">AUDIT EXCELLENCE</text>
  <!-- Title -->
  <text x="80" y="460" font-family="Arial, sans-serif" font-size="40" font-weight="800" fill="#FFFFFF">How AI is Transforming</text>
  <text x="80" y="510" font-family="Arial, sans-serif" font-size="40" font-weight="800" fill="#FFFFFF">Internal Audit</text>
  <text x="80" y="555" font-family="Arial, sans-serif" font-size="28" font-weight="400" fill="#FFFFFF" opacity="0.7">in Nigerian Banks</text>
  <!-- Bottom bar -->
  <rect x="80" y="590" width="80" height="4" rx="2" fill="#2D7D46"/>
  <text x="80" y="630" font-family="Arial, sans-serif" font-size="14" fill="#FFFFFF" opacity="0.5">Atheris Limited  |  6 min read</text>
</svg>
